<?xml version="1.0" encoding="UTF-8"?>
<svg width="150px" height="50px" viewBox="0 0 150 50" version="1.1" xmlns="http://www.w3.org/2000/svg" xmlns:xlink="http://www.w3.org/1999/xlink">
    <!-- Generator: Sketch 48.2 (47327) - http://www.bohemiancoding.com/sketch -->
    <title>aa</title>
    <desc>Created with Sketch.</desc>
    <defs>
        <linearGradient x1="49.9526846%" y1="1.84882622%" x2="49.9526846%" y2="98.7531791%" id="linearGradient-1">
            <stop stop-color="#00D9FF" offset="0%"></stop>
            <stop stop-color="#0E518A" offset="100%"></stop>
        </linearGradient>
        <linearGradient x1="0.120977011%" y1="49.9688811%" x2="99.9856322%" y2="49.9688811%" id="linearGradient-2">
            <stop stop-color="#F12E1F" offset="0%"></stop>
            <stop stop-color="#9F1E1C" offset="100%"></stop>
        </linearGradient>
        <linearGradient x1="136.00254%" y1="-51.002682%" x2="11.2092063%" y2="82.497318%" id="linearGradient-3">
            <stop stop-color="#F12E1F" offset="0%"></stop>
            <stop stop-color="#9F1E1C" offset="100%"></stop>
        </linearGradient>
        <linearGradient x1="23.2220198%" y1="50.3610813%" x2="97.433403%" y2="48.1990534%" id="linearGradient-4">
            <stop stop-color="#E6EAEF" offset="0%"></stop>
            <stop stop-color="#95AAB1" offset="100%"></stop>
        </linearGradient>
    </defs>
    <g id="HOME" stroke="none" stroke-width="1" fill="none" fill-rule="evenodd">
        <g id="aa" fill-rule="nonzero">
            <g id="american-airlines" transform="translate(78.000000, 25.500000) rotate(-360.000000) translate(-78.000000, -25.500000) translate(16.000000, 4.000000)">
                <g id="Group-25" transform="translate(0.000000, 6.000000)" fill="#FFFFFF">
                    <g id="Group-20">
                        <path d="M24.1409472,13.7863017 L24.1409472,8.52014635 C24.1409472,6.7878584 23.5248739,5.88706866 22.3611798,5.88706866 C21.5853838,5.88706866 20.9008579,6.41830364 20.60423,7.22670468 C20.5357774,7.43457923 20.4901423,7.75793965 20.4901423,8.0582029 L20.4901423,13.7632046 L18.2996594,13.7632046 L18.2996594,8.26607745 C18.2996594,6.76476123 17.6607686,5.88706866 16.5655271,5.88706866 C15.6071908,5.88706866 14.9911175,6.64927536 14.7401247,7.31909337 C14.6488546,7.59625944 14.626037,7.87342552 14.626037,8.15059159 L14.626037,13.7863017 L12.4355541,13.7863017 L12.4355541,7.08812164 C12.4355541,6.00255453 12.389919,5.07866762 12.3671015,4.29336374 L14.2609565,4.29336374 L14.3750442,5.72538845 L14.5575844,5.72538845 L14.580402,5.67919411 C15.013935,4.94008458 15.8810012,4.06239202 17.4554108,4.06239202 C18.6419224,4.06239202 19.6230762,4.73221003 20.0337917,5.79467997 L20.0566093,5.84087432 L20.1935145,5.84087432 L20.216332,5.79467997 C20.5357774,5.28654217 20.9008579,4.89389024 21.3572085,4.61672416 C21.9276468,4.22407223 22.5209026,4.06239202 23.2738811,4.06239202 C24.004042,4.06239202 26.3770652,4.36265526 26.3770652,8.17368876 L26.3770652,13.7863017 L24.1409472,13.7863017 Z" id="Shape"></path>
                        <path d="M32.7203387,13.9710791 C29.7312422,13.9710791 27.8830222,12.1233053 27.8830222,9.16686719 C27.8830222,6.69546971 29.3205266,4.03929484 32.4693458,4.03929484 C35.4584423,4.03929484 36.5080487,6.5337895 36.5080487,8.65872939 C36.5080487,9.12067284 36.4624137,9.44403326 36.4395961,9.60571347 L30.0278701,9.60571347 L30.0278701,9.69810216 C30.0963227,11.5920703 31.6250972,12.2849855 33.0397841,12.2849855 C34.2262957,12.2849855 35.0020917,12.077111 35.618165,11.8692364 L35.9376105,13.3936498 C35.3215371,13.6708159 34.2491132,13.9710791 32.7203387,13.9710791 Z M32.3324407,5.56370824 C30.712396,5.56370824 30.1191402,7.08812164 30.0506876,7.98891138 L30.0506876,8.08130007 L34.4088359,8.08130007 L34.4088359,8.01200855 C34.4088359,7.73484248 34.3860184,6.76476123 33.7699451,6.11804039 C33.3820471,5.74848563 32.9028789,5.56370824 32.3324407,5.56370824 Z" id="Shape"></path>
                        <path d="M38.196546,13.7863017 L38.196546,7.31909337 C38.196546,5.95636018 38.1737285,5.07866762 38.1280934,4.29336374 L40.0447659,4.29336374 L40.1360361,6.11804039 L40.3185763,6.11804039 L40.3413938,6.07184604 C40.7521094,4.87079306 41.7560807,4.08548919 42.8969573,4.08548919 C43.102315,4.08548919 43.2164027,4.10858636 43.7868409,4.13168354 L43.7868409,6.25662343 C43.1935852,6.23352625 42.9882274,6.21042908 42.7372345,6.21042908 C41.596358,6.21042908 40.7292919,6.94953861 40.5011166,8.12749442 C40.4554815,8.35846614 40.432664,8.61253504 40.432664,8.86660394 L40.432664,13.8093989 L38.196546,13.8093989 L38.196546,13.7863017 Z" id="Shape"></path>
                        <path d="M53.6440141,13.9710791 C50.7005527,13.9710791 48.8066976,12.0540138 48.8066976,9.12067284 C48.8066976,6.09494322 50.9059104,4.06239202 54.0319121,4.06239202 C54.8077082,4.06239202 55.6747743,4.22407223 56.2680301,4.47814113 L55.8801321,6.16423474 C55.3781464,5.93326301 54.8077082,5.81777714 54.1003647,5.81777714 C53.2332985,5.81777714 52.5031376,6.11804039 51.9783344,6.64927536 C51.4078961,7.22670468 51.1112682,8.08130007 51.1112682,9.02828415 C51.1112682,10.9453495 52.3205973,12.215694 54.1003647,12.215694 C54.7620731,12.215694 55.3553289,12.1002081 55.9485847,11.8692364 L56.2452126,13.5091357 C55.7660444,13.7401074 54.8077082,13.9710791 53.6440141,13.9710791 Z" id="Shape"></path>
                        <path d="M60.2154629,13.9941763 C58.2987903,13.9941763 57.294819,12.5852488 57.294819,11.1994184 C57.294819,8.88970112 59.2571266,7.61935662 62.7938438,7.61935662 L62.9535665,7.61935662 L62.9535665,7.38838489 C62.9535665,6.71856688 62.7025737,5.63299976 60.9456238,5.63299976 C60.0785577,5.63299976 59.1202214,5.88706866 58.4356955,6.30281777 L58.0021624,4.87079306 C58.3900604,4.63982134 59.5537545,4.06239202 61.3563394,4.06239202 C64.5507937,4.06239202 65.212502,6.23352625 65.212502,8.0582029 L65.212502,11.5227788 C65.212502,12.4928601 65.2581371,13.2319696 65.3494072,13.7632046 L63.3414645,13.7632046 L63.1589243,12.7007346 L62.9992016,12.7007346 L62.9763841,12.7238318 C62.3831283,13.5322328 61.3791569,13.9941763 60.2154629,13.9941763 Z M62.8166613,9.05138133 C60.6489959,9.05138133 59.530937,9.67500499 59.530937,10.9453495 C59.530937,11.8461392 60.0785577,12.4235685 60.9912589,12.4235685 C62.0408653,12.4235685 62.7253912,11.7306534 62.9763841,11.0377382 C63.0448366,10.8529608 63.0448366,10.6681834 63.0448366,10.483406 L63.0448366,9.0744785 L62.8166613,9.05138133 Z" id="Shape"></path>
                        <path d="M73.2899078,13.7863017 L73.2899078,8.40466049 C73.2899078,6.7878584 72.6053819,5.88706866 71.3960528,5.88706866 C70.3236289,5.88706866 69.684738,6.69546971 69.4337452,7.36528772 C69.3652926,7.5500651 69.3196575,7.85032834 69.3196575,8.17368876 L69.3196575,13.7863017 L67.060722,13.7863017 L67.060722,7.08812164 C67.060722,6.00255453 67.0150869,5.07866762 66.9922694,4.29336374 L68.9317595,4.29336374 L69.0458472,5.74848563 L69.2283874,5.74848563 L69.2512049,5.70229128 C69.7075555,4.91698741 70.7115269,4.08548919 72.2403014,4.08548919 C73.8375286,4.08548919 75.5488433,5.14795914 75.5488433,8.15059159 L75.5488433,13.8093989 L73.2899078,13.8093989 L73.2899078,13.7863017 Z" id="Shape"></path>
                        <path d="M8.94447194,13.7863017 L11.3859477,13.7863017 L7.16470456,0.574718936 L4.1984256,0.574718936 L0,13.7863017 L2.32738811,13.7863017 L3.1488192,10.876058 L8.07740578,10.876058 L8.94447194,13.7863017 Z M3.62798734,9.21306153 L4.86013399,4.91698741 C4.99703917,4.40884961 5.13394435,3.85451746 5.27084953,3.30018532 C5.33930213,2.99992207 5.40775472,2.69965883 5.49902484,2.42249275 L5.52184237,2.35320124 L5.68156508,2.35320124 L5.81847027,2.86133904 C5.97819298,3.50805987 6.16073322,4.2471694 6.366091,4.89389024 L7.62105517,9.18996436 L3.62798734,9.18996436 L3.62798734,9.21306153 Z" id="Shape"></path>
                        <g id="Group" transform="translate(44.950535, 0.644010)">
                            <polygon id="Shape" points="0.0684525914 13.1422913 0.0684525914 3.62625612 2.32738811 3.62625612 2.32738811 13.1191941 0.0684525914 13.1191941"></polygon>
                            <rect id="Rectangle-path" x="0.182540244" y="0" width="2.03076021" height="1.94016251"></rect>
                        </g>
                    </g>
                    <g id="Group-23" transform="translate(14.709677, 15.880000)">
                        <path d="M17.724278,14.0263017 L17.724278,7.55909337 C17.724278,6.19636018 17.7014604,5.31866762 17.6558254,4.53336374 L19.5724979,4.53336374 L19.6637681,6.35804039 L19.8463083,6.35804039 L19.8691258,6.31184604 C20.2798414,5.11079306 21.2838127,4.32548919 22.4246892,4.32548919 C22.630047,4.32548919 22.7441347,4.34858636 23.3145729,4.37168354 L23.3145729,6.49662343 C22.7213171,6.47352625 22.5159594,6.45042908 22.2649665,6.45042908 C21.12409,6.45042908 20.2570238,7.18953861 20.0288485,8.36749442 C19.9832135,8.59846614 19.9603959,8.85253504 19.9603959,9.10660394 L19.9603959,14.0493989 L17.724278,14.0493989 L17.724278,14.0263017 Z" id="Shape"></path>
                        <rect id="Rectangle-path" x="24.2957267" y="0.0987065811" width="2.25893551" height="13.9275952"></rect>
                        <path d="M39.8116474,14.0263017 L39.8116474,8.64466049 C39.8116474,7.0278584 39.1271215,6.12706866 37.9177924,6.12706866 C36.8453685,6.12706866 36.2064776,6.93546971 35.9554848,7.60528772 C35.8870322,7.7900651 35.8413971,8.09032834 35.8413971,8.41368876 L35.8413971,14.0263017 L33.5824616,14.0263017 L33.5824616,7.32812164 C33.5824616,6.24255453 33.5368266,5.31866762 33.514009,4.53336374 L35.4534991,4.53336374 L35.5675868,5.98848563 L35.750127,5.98848563 L35.7729446,5.94229128 C36.2292952,5.15698741 37.2332665,4.32548919 38.762041,4.32548919 C40.3592682,4.32548919 42.070583,5.38795914 42.070583,8.39059159 L42.070583,14.0493989 L39.8116474,14.0493989 L39.8116474,14.0263017 Z" id="Shape"></path>
                        <path d="M48.6192142,14.2110791 C45.6301177,14.2110791 43.7818977,12.3633053 43.7818977,9.40686719 C43.7818977,6.93546971 45.2194022,4.27929484 48.3682214,4.27929484 C51.3573179,4.27929484 52.4069243,6.7737895 52.4069243,8.89872939 C52.4069243,9.36067284 52.3612892,9.68403326 52.3384717,9.84571347 L45.9267456,9.84571347 L45.9267456,9.93810216 C45.9951982,11.8320703 47.5239727,12.5249855 48.9386596,12.5249855 C50.1251712,12.5249855 50.9009672,12.317111 51.5170406,12.1092364 L51.836486,13.6336498 C51.2204127,13.9108159 50.1479887,14.2110791 48.6192142,14.2110791 Z M48.2313162,5.80370824 C46.6112715,5.80370824 46.0180157,7.32812164 45.9495631,8.22891138 L45.9495631,8.32130007 L50.3077115,8.32130007 L50.3077115,8.25200855 C50.3077115,7.97484248 50.2848939,7.00476123 49.6688206,6.35804039 C49.2809226,5.98848563 48.8017544,5.80370824 48.2313162,5.80370824 Z" id="Shape"></path>
                        <path d="M56.3315395,14.2110791 C55.2819331,14.2110791 54.2779617,13.9801074 53.5249832,13.5874555 L53.9813339,11.9706534 C54.5517721,12.317111 55.5329259,12.6404714 56.354357,12.6404714 C57.3811459,12.6404714 57.9515842,12.2247223 57.9515842,11.4625156 C57.9515842,10.723406 57.426781,10.3769484 56.3315395,9.98429651 C54.6430422,9.40686719 53.7531585,8.45988311 53.7531585,7.23573295 C53.7531585,5.503445 55.2134805,4.30239202 57.2898758,4.30239202 C58.202577,4.30239202 59.1152782,4.51026657 59.7541691,4.83362699 L59.320636,6.38113756 C58.8642854,6.12706866 58.1341244,5.87299976 57.3583284,5.87299976 C56.4912622,5.87299976 55.9436415,6.31184604 55.9436415,6.98166405 C55.9436415,7.65148206 56.4456271,7.95174531 57.6549563,8.41368876 C59.3890886,9.01421525 60.1420671,9.86881064 60.1420671,11.2777382 C60.1420671,13.0793177 58.6817451,14.2110791 56.3315395,14.2110791 Z" id="Shape"></path>
                        <path d="M9.46433194,14.0263017 L11.9058077,14.0263017 L7.66174703,0.814718936 L4.69546807,0.814718936 L0.519859999,14.0263017 L2.84724811,14.0263017 L3.6686792,11.116058 L8.59726578,11.116058 L9.46433194,14.0263017 Z M4.14784734,9.45306153 L5.37999399,5.15698741 C5.51689917,4.64884961 5.65380435,4.09451746 5.79070953,3.54018532 C5.85916213,3.23992207 5.92761472,2.93965883 6.01888484,2.66249275 L6.04170237,2.59320124 L6.20142508,2.59320124 L6.33833027,3.10133904 C6.49805298,3.74805987 6.68059322,4.4871694 6.885951,5.13389024 L8.14091517,9.42996436 L4.14784734,9.42996436 L4.14784734,9.45306153 Z" id="Shape"></path>
                        <g id="Group" transform="translate(12.818509, 0.884010)">
                            <polygon id="Shape" points="0.182540244 13.1422913 0.182540244 3.62625612 2.44147576 3.62625612 2.44147576 13.1191941 0.182540244 13.1191941"></polygon>
                            <rect id="Rectangle-path" x="0.296627896" y="0" width="2.03076021" height="1.94016251"></rect>
                        </g>
                        <g id="Group" transform="translate(29.018956, 0.884010)">
                            <polygon id="Shape" points="0.0912701218 13.1422913 0.0912701218 3.62625612 2.35020564 3.62625612 2.35020564 13.1191941 0.0912701218 13.1191941"></polygon>
                            <rect id="Rectangle-path" x="0.228175305" y="0" width="2.03076021" height="1.94016251"></rect>
                        </g>
                    </g>
                </g>
                <g id="Group-24" transform="translate(74.000000, 0.000000)">
                    <g id="Group">
                        <path d="M0.304228287,0.224347826 C5.05779527,0.224347826 8.13810668,-0.486086957 11.5987034,3.4773913 L22.9692357,17.2747826 L14.5269007,17.2747826 C12.6254739,17.2747826 10.4578474,16.7513043 8.67050618,13.7973913 L0.304228287,0.224347826 Z" id="Shape" fill="url(#linearGradient-1)"></path>
                        <path d="M26.0875756,21.2756522 L44.0370445,42.6634783 L31.4495992,42.6634783 C27.1143461,42.6634783 24.6044627,40.1208696 22.9692357,37.3913043 L17.5691836,28.38 L19.1283535,23.6313043 L26.0875756,21.2756522 Z" id="Shape" fill="url(#linearGradient-2)"></path>
                        <path d="M18.9382109,30.6608696 C19.7368101,27.1834783 25.8974329,24.3043478 29.0918299,24.7904348 L25.8594044,20.9017391 L20.5734379,22.0234783 L17.1128411,27.52 L18.9382109,30.6608696 Z" id="Shape" fill="url(#linearGradient-3)"></path>
                        <path d="M18.8241253,30.5113043 L14.6790148,23.6313043 C13.4621017,21.5 14.5649292,18.9573913 18.9762394,18.4713043 C23.3875496,17.9852174 31.0693138,17.2747826 33.2369403,21.6869565 C27.2664602,21.0886957 18.3677828,22.8834783 18.8241253,30.5113043 Z" id="Shape" fill="url(#linearGradient-4)"></path>
                    </g>
                    <g id="Group" transform="translate(44.100000, 40.542857)" fill="#FFFFFF">
                        <polygon id="Shape" points="0.914055258 0.269217391 0.198707665 0.269217391 0.198707665 0.0897391304 1.90759358 0.0897391304 1.90759358 0.269217391 1.19224599 0.269217391 1.19224599 1.82469565 0.874313725 1.82469565 0.874313725 0.269217391"></polygon>
                        <path d="M4.13311943,1.04695652 C4.13311943,0.807652174 4.0933779,0.508521739 4.0933779,0.299130435 C4.01389483,0.508521739 3.93441176,0.717913043 3.81518717,0.957217391 L3.41777184,1.79478261 L3.17932264,1.79478261 L2.82164884,0.957217391 C2.70242424,0.717913043 2.62294118,0.478608696 2.54345811,0.269217391 C2.54345811,0.478608696 2.50371658,0.77773913 2.50371658,1.04695652 L2.42423351,1.79478261 L2.14604278,1.79478261 L2.30500891,0.059826087 L2.70242424,0.059826087 L3.09983957,0.897391304 C3.17932264,1.10678261 3.2588057,1.28626087 3.33828877,1.49565217 C3.41777184,1.31617391 3.4972549,1.13669565 3.57673797,0.897391304 L3.9741533,0.059826087 L4.37156863,0.059826087 L4.53053476,1.79478261 L4.25234403,1.79478261 L4.13311943,1.04695652 Z" id="Shape"></path>
                    </g>
                </g>
            </g>
        </g>
    </g>
</svg>