<?xml version="1.0" encoding="UTF-8"?>
<svg width="150px" height="50px" viewBox="0 0 150 50" version="1.1" xmlns="http://www.w3.org/2000/svg" xmlns:xlink="http://www.w3.org/1999/xlink">
    <!-- Generator: Sketch 48.2 (47327) - http://www.bohemiancoding.com/sketch -->
    <title>copa</title>
    <desc>Created with Sketch.</desc>
    <defs></defs>
    <g id="HOME" stroke="none" stroke-width="1" fill="none" fill-rule="evenodd">
        <g id="copa" fill="#FFFFFF" fill-rule="nonzero">
            <g id="Group-47" transform="translate(1.000000, 6.000000)">
                <g id="Copa_Airlines">
                    <path d="M147.173184,34.5525071 C147.173184,34.0227369 146.80404,33.8994413 146.422862,33.8994413 L145.519553,33.8994413 L145.519553,36.3798883 L145.815642,36.3798883 L145.815642,35.2366473 L146.154706,35.2366473 L146.790718,36.3798883 L147.146541,36.3798883 L146.510529,35.2366473 C146.886119,35.2221125 147.173184,35.0466919 147.173184,34.5525071 Z M146.155135,34.8812954 L145.816072,34.8812954 L145.816072,34.2457717 L146.361839,34.2457717 C146.59089,34.2457717 146.879673,34.2928846 146.879673,34.5520059 C146.879244,34.944948 146.418565,34.8812954 146.155135,34.8812954 Z" id="Shape"></path>
                    <path d="M145.921723,33.0726257 C144.783281,33.0726257 143.865922,33.9636107 143.865922,35.1228146 C143.865922,36.2843267 144.783281,37.2067039 145.921723,37.2067039 C147.081724,37.2067039 148,36.2843267 148,35.1228146 C148,33.9636107 147.081724,33.0726257 145.921723,33.0726257 Z M145.921723,36.8881652 C144.995191,36.8881652 144.180117,36.1075146 144.180117,35.1228146 C144.180117,34.142731 144.995191,33.3574639 145.921723,33.3574639 C146.869355,33.3574639 147.685805,34.142731 147.685805,35.1228146 C147.685805,36.1075146 146.869355,36.8881652 145.921723,36.8881652 Z" id="Shape"></path>
                    <g id="Group" transform="translate(103.351955, 0.000000)">
                        <path d="M25.8287124,33.018681 C23.7850661,32.4319948 21.2822346,32.3938806 18.591101,32.9070609 C15.8146641,33.4352146 12.9061889,34.5464246 10.1728573,36.1150048 C9.75813871,36.3541259 9.34886497,36.6014144 8.94911977,36.8618613 L30.5489726,36.8618613 C30.4800041,36.6989685 30.4069519,36.5401594 30.3275473,36.3877027 C29.4745156,34.7855457 27.915464,33.6194332 25.8287124,33.018681 Z" id="Shape"></path>
                        <path d="M31.3779561,31.1451874 C30.3497806,29.2131612 28.476287,27.8092887 25.9612045,27.0882954 C23.5028396,26.3777381 20.4895503,26.3314566 17.2480297,26.9499046 C13.9107699,27.5860485 10.4083485,28.9209524 7.12236136,30.812142 C4.64267066,32.2373402 2.38213653,33.9139106 0.438766862,35.7642635 L0.438766862,36.862315 L7.70496389,36.862315 C8.55118954,36.1930481 9.45186401,35.5623491 10.400635,34.9684031 C13.8064096,32.8326475 17.5869737,31.3961057 21.0485584,30.9201322 C24.4756588,30.448696 27.4258782,30.937828 29.3560894,32.3026788 C30.869767,33.369876 31.7150852,34.9171304 31.8766167,36.862315 L32.1320725,36.862315 L32.2241818,35.9434909 C32.4061316,34.1553004 32.118914,32.5408925 31.3779561,31.1451874 Z" id="Shape"></path>
                        <path d="M1.22646001,20.7781292 C0.961475678,20.9324009 0.698306309,21.0848576 0.438766862,21.2423055 L0.438766862,24.3173034 C7.92457419,18.846103 16.0256534,16.941755 22.6979043,16.5116092 C17.0765159,14.8931176 8.98088159,16.3196771 1.22646001,20.7781292 Z" id="Shape"></path>
                        <path d="M26.0043099,17.2235277 C26.2720166,17.4476754 26.5306486,17.6836204 26.7733996,17.9368075 C26.7733996,17.9368075 28.5502466,19.7771781 29.1378403,21.5177258 L28.5679425,20.6184126 C27.6668143,19.1968443 26.3763769,18.0947091 24.782841,17.3120071 C17.5529432,17.9136667 8.36651724,20.1610424 0.438766862,26.7066998 L0.438766862,27.2012767 C2.56045647,25.5088255 4.84776128,24.0364382 7.25031612,22.8154231 C9.81757869,21.5100123 12.4107045,20.5439992 14.9593637,19.945062 C17.5229963,19.3424949 19.92056,19.1351356 22.0926148,19.3316051 C26.2647568,19.7073021 29.2567203,21.533153 30.7490721,24.616772 C30.7490721,24.616772 31.8924976,26.9331162 31.993228,29.2862134 L31.6724336,27.9454108 C31.5050034,27.2543644 31.2577149,26.5914498 30.9287532,25.9779929 C29.7898651,23.8404224 27.7180869,22.2840932 24.9334828,21.4868715 C22.212856,20.7041695 18.8805873,20.6519894 15.296039,21.3344148 C11.5980556,22.0408884 7.72356724,23.5164518 4.09092247,25.6077408 C2.81409729,26.3387164 1.59535087,27.1300395 0.438766862,27.9749039 L0.438766862,35.2088854 C1.71831448,33.8776114 3.14895762,32.6184821 4.72252895,31.4514621 C7.0406881,29.7249802 9.55940046,28.273465 12.200169,27.1354844 C17.5066617,24.8490871 22.6992656,24.1348999 26.4444379,25.1680665 C29.9146437,26.1304497 31.9814307,28.521661 32.4238275,32.085791 C32.4238275,32.085791 32.6611337,34.3635672 32.2064859,36.8614075 L37.0088731,36.8614075 L37.0088731,17.6976863 C35.7207045,17.481706 31.5267829,16.8877599 26.0043099,17.2235277 Z" id="Shape"></path>
                        <g id="Shape">
                            <path d="M7.54978471,10.3225916 C5.2207358,10.7214294 2.80774492,11.4710083 0.438766862,12.5241395 L0.438766862,13.43525 C3.60950402,11.7868116 6.79385339,10.7146232 9.82483853,10.0417264 C9.08388064,10.0957215 8.32613435,10.1882845 7.54978471,10.3225916 Z"></path>
                            <path d="M0.438766862,0.287217605 L0.438766862,10.0408189 C0.438766862,10.0408189 4.55237635,8.62106554 8.92144161,9.28398011 L7.18089385,9.35113367 C5.04150838,9.43099196 2.73923014,9.92556888 0.438766862,10.7795081 L0.438766862,11.8625862 C4.02104646,10.2159627 8.23221011,9.38198801 11.8902643,9.63835127 C21.0503733,8.08746696 28.3447023,9.97865649 28.3447023,9.97865649 C26.9222265,9.74044284 21.3189876,8.95229595 14.4126066,9.99635236 C15.0655389,10.1479016 16.1036967,10.4573525 17.1545592,11.0703556 L16.3010737,10.7654422 C15.4652841,10.4677885 14.5550811,10.2567993 13.5877068,10.1292983 C9.42872326,10.8384943 4.85229868,12.2260322 0.438766862,14.7932947 L0.438766862,15.3327919 C7.08787709,11.7010546 14.2415465,10.3416487 19.4300668,12.2078825 C27.7385052,11.6089454 33.8522019,13.3004892 33.8522019,13.3004892 C32.4574043,13.0654517 27.494393,12.3630617 21.099831,12.9592765 C21.4578321,13.1584685 23.0141613,14.0668565 23.6752609,14.9974779 L23.2959341,14.6907494 C22.4311051,13.9987955 21.4197179,13.4484085 20.2917196,13.038681 C14.2610574,13.6961507 7.07653359,15.5306227 0.438766862,19.9527756 L0.438766862,20.4527974 C1.00957215,20.0825453 1.5889985,19.7245442 2.17749966,19.3815166 C6.92135441,16.6050797 11.9301935,14.909906 16.2806554,14.6086224 C19.698681,14.3722237 22.6293896,14.9943017 24.8944611,16.4181387 C31.769534,16.2806554 36.6844488,17.6055771 37.0088731,17.6949639 L37.0088731,0.287217605 L0.438766862,0.287217605 Z"></path>
                        </g>
                        <path d="M0.438766862,16.0025126 L0.438766862,17.9971549 C6.28974792,14.5160594 12.3317536,12.9511091 17.6436912,12.3716828 C12.7709742,11.6016855 6.51525685,12.8589999 0.438766862,16.0025126 Z" id="Shape"></path>
                    </g>
                    <g id="Group">
                        <g id="Group-46" transform="translate(0.000000, 19.843575)">
                            <path d="M7.86841683,0.520434513 L12.4111974,0.520434513 C13.2035064,2.26639354 19.7364703,16.7127002 19.7364703,16.7127002 L15.5911886,16.7127002 L13.8766105,12.9355307 L6.35012339,12.9355307 L4.68528864,16.7159156 L0.516255621,16.7159156 L7.86841683,0.520434513 Z M12.5765605,9.97920546 L10.139583,4.43219119 L7.67482097,9.97920546 L12.5765605,9.97920546 Z" id="Shape"></path>
                            <path d="M61.5321131,4.14142768 C58.8957139,4.14142768 57.6212079,5.55895717 57.6212079,5.55895717 L57.4025162,4.38901304 L53.8613253,4.38901304 C53.9944225,4.82676598 54.2359692,5.6522036 54.2359692,6.36831782 L54.2359692,16.7168343 L57.7372757,16.7168343 L57.7372757,9.55844817 C57.7372757,7.61175667 58.8961621,6.61774053 61.5325612,6.61774053 C62.9800488,6.61774053 63.8597447,7.11107387 63.8597447,9.55844817 L63.8597447,16.7163749 L67.3614994,16.7163749 L67.3614994,9.55844817 C67.3614994,5.87498448 66.2026131,4.14142768 61.5321131,4.14142768 Z" id="Shape"></path>
                            <path d="M77.2850797,4.18001241 C71.3216999,4.18001241 69.9907284,7.05181875 69.9907284,10.5625698 C69.9907284,14.1050155 71.2912265,16.9749845 77.5768179,16.9749845 C79.8780094,16.9749845 82.0205599,16.5381502 82.512616,16.4311235 C82.6053807,15.8091744 82.8074912,14.4440099 82.8751601,13.9773184 C82.5444338,14.0122284 79.8219921,14.5243948 77.5772661,14.5243948 C74.6625729,14.5243948 73.8729527,13.388442 73.6385763,11.802334 L83.7311048,11.802334 L83.7311048,10.5616511 C83.7306566,6.13405338 81.4303614,4.18001241 77.2850797,4.18001241 Z M73.63768,9.32326505 C73.8433756,7.79090006 74.5155834,6.63106145 77.2850797,6.63106145 C79.3218695,6.63106145 80.054576,7.96866543 80.1701958,9.32326505 L73.63768,9.32326505 Z" id="Shape"></path>
                            <path d="M43.7221904,14.7646307 L43.7221904,0.527783985 L40.2159543,0.527783985 L40.2159543,14.7646307 C40.2159543,15.6323277 40.5099332,16.509671 40.5825317,16.7168343 L44.089664,16.7168343 C44.0354393,16.5128864 43.7221904,15.6732092 43.7221904,14.7646307 Z" id="Shape"></path>
                            <path d="M32.0091929,9.5281316 C32.0230852,7.62278088 33.384082,6.61774053 35.8017895,6.61774053 C36.201081,6.61774053 37.7870433,6.83133457 38.4686621,6.91401614 C38.4283296,6.59798883 38.1858867,5.05689634 38.0855036,4.4344879 C37.588518,4.3394041 36.4690678,4.14188703 35.8017895,4.14188703 C33.7493149,4.14188703 32.59491,4.91082557 31.9495905,5.50108007 L31.6520265,4.38947238 L28.135035,4.38947238 C28.2013596,4.6388951 28.4993717,5.47489758 28.5051975,6.33983861 L28.5051975,16.7140782 L32.0087448,16.7140782 L32.0087448,9.5281316 L32.0091929,9.5281316 Z" id="Shape"></path>
                            <path d="M96.3641307,4.80012415 L96.3641307,7.59384233 C95.6771343,7.21718187 94.9619052,6.93009311 94.2188915,6.73808814 C93.4740852,6.54516449 92.7283826,6.44916201 91.9808875,6.44916201 C91.1495905,6.44916201 90.5208521,6.55251397 90.093776,6.75967722 C89.6720776,6.96684047 89.4583155,7.27459963 89.4583155,7.68295469 C89.4583155,8.26448169 90.3675887,8.738982 92.1856868,9.10140286 L92.3272986,9.13539417 L93.3952128,9.35450031 C94.7562096,9.63240223 95.7515253,10.0756673 96.3834007,10.6911856 C97.0161724,11.3062446 97.3312138,12.1399503 97.3312138,13.1812787 C97.3312138,14.4426319 96.8526018,15.3902545 95.8859669,16.018175 C94.922469,16.6460956 93.4709482,16.9639603 91.5358859,16.9639603 C90.6781487,16.9639603 89.7975564,16.899193 88.8976942,16.7701179 C87.997832,16.6428802 87.0840775,16.4568467 86.1591195,16.1996151 L86.1591195,13.4022222 C86.9819019,13.8041465 87.8212654,14.1073122 88.67721,14.3190689 C89.5295696,14.5345003 90.3541445,14.640149 91.1531756,14.640149 C92.0274939,14.640149 92.6893946,14.5289882 93.1420145,14.3089634 C93.5928419,14.0889385 93.8160149,13.7752079 93.8160149,13.3581254 C93.8160149,12.9534451 93.6560294,12.6401738 93.3382992,12.4187709 C93.020569,12.2005835 92.2609741,11.9686158 91.0635479,11.7205711 L90.032381,11.5248914 C88.6055079,11.2520422 87.5649301,10.8156673 86.9084071,10.2277095 C86.2572618,9.63929236 85.9287762,8.84509001 85.9287762,7.85750466 C85.9287762,6.67883302 86.4239694,5.76106766 87.4210777,5.10512725 C88.4137046,4.45010552 89.8114487,4.12351335 91.6120695,4.12351335 C92.4200633,4.12351335 93.2235757,4.18001241 94.0270882,4.2902545 C94.8306006,4.40417132 95.6072247,4.57412787 96.3641307,4.80012415 Z" id="Shape"></path>
                            <path d="M50.7301812,14.7646307 L50.7301812,4.38212291 L47.226634,4.38212291 L47.226634,14.7646307 C47.226634,15.6842334 47.5600491,16.5905152 47.6075517,16.7168343 L51.0998955,16.7168343 C51.0376043,16.4844072 50.7301812,15.6497827 50.7301812,14.7646307 Z M48.966756,3.44001241 C49.7281434,3.44001241 50.2448472,3.33436375 50.5280707,3.12076971 C50.8090536,2.90717567 50.9475284,2.519491 50.9475284,1.96184978 C50.9475284,1.4253383 50.8117424,1.05051521 50.5424112,0.839677219 C50.2677022,0.632513966 49.7545836,0.525487275 48.995885,0.525487275 C48.2237423,0.525487275 47.7039015,0.633891993 47.4274,0.85116077 C47.1544837,1.06842955 47.0151126,1.45749224 47.0151126,2.01651148 C47.0151126,2.55394165 47.1500023,2.92463066 47.4126115,3.12995655 C47.6810465,3.33574178 48.1981984,3.44001241 48.966756,3.44001241 Z" id="Shape"></path>
                            <path d="M24.99448,14.7646307 L24.99448,4.38212291 L21.491829,4.38212291 L21.491829,14.7646307 C21.491829,15.6842334 21.8243479,16.5905152 21.8736431,16.7168343 L25.3650906,16.7168343 C25.3027994,16.4844072 24.99448,15.6497827 24.99448,14.7646307 Z M23.2337436,3.44001241 C23.9924422,3.44001241 24.5109385,3.33436375 24.7932658,3.12076971 C25.0733524,2.90717567 25.2140679,2.519491 25.2140679,1.96184978 C25.2140679,1.4253383 25.0773857,1.05051521 24.8089507,0.839677219 C24.5306566,0.632513966 24.0211231,0.525487275 23.2615282,0.525487275 C22.4893855,0.525487275 21.9695447,0.633891993 21.692147,0.85116077 C21.4201269,1.06842955 21.2798595,1.45749224 21.2798595,2.01651148 C21.2798595,2.55394165 21.4129567,2.92463066 21.6764621,3.12995655 C21.9471378,3.33574178 22.4642897,3.44001241 23.2337436,3.44001241 Z" id="Shape"></path>
                        </g>
                        <g id="Group-45" transform="translate(31.418994, 0.000000)">
                            <path d="M26.7139877,4.17036623 C22.3343295,4.17036623 19.4160512,6.14967101 19.4160512,10.5777281 C19.4160512,15.0365611 22.3343295,16.9892241 26.7139877,16.9892241 C31.0936458,16.9892241 34.008339,15.0361018 34.008339,10.5777281 C34.0087871,6.14921167 31.094094,4.17036623 26.7139877,4.17036623 Z M26.7139877,14.5409311 C23.7854022,14.5409311 22.9204948,13.0545003 22.9204948,10.5777281 C22.9204948,8.13494724 23.7854022,6.64621974 26.7139877,6.64621974 C29.6304734,6.64621974 30.5074806,8.1344879 30.5074806,10.5777281 C30.5074806,13.0545003 29.6304734,14.5409311 26.7139877,14.5409311 Z" id="Shape"></path>
                            <path d="M65.6899426,8.10692737 C65.6899426,5.62556176 63.0938759,4.14142768 59.2725984,4.14142768 C57.3039258,4.14142768 54.8803924,4.92552452 54.044614,5.21812539 C53.9639491,5.74223464 53.7138878,7.37152079 53.6645925,7.71327126 C54.4268762,7.541018 57.4150641,6.61774053 59.2725984,6.61774053 C61.1910796,6.61774053 62.1863954,7.28792055 62.1863954,8.25483551 L62.1863954,9.31086282 C62.1863954,9.31086282 59.8291865,9.06511484 58.9804121,9.06511484 C55.1591346,9.06511484 52.8471878,10.4720795 52.8471878,13.0269398 C52.8471878,16.2496834 56.3292244,16.9616636 58.0998198,16.9616636 C60.4996018,16.9616636 61.7490121,16.2997517 62.3342811,15.7531347 L62.5354953,16.7168343 L66.0497979,16.7168343 C66.004984,16.525748 65.6899426,15.6699938 65.6899426,14.5133706 L65.6899426,8.10692737 Z M62.1863954,12.036139 C62.1863954,14.3149348 60.0658037,14.5133706 58.0998198,14.5133706 C57.4294046,14.5133706 56.3588015,14.3672998 56.3588015,13.0269398 C56.3588015,12.1367349 57.5445762,11.5423464 58.9804121,11.5423464 L62.1863954,11.5423464 L62.1863954,12.036139 Z" id="Shape"></path>
                            <path d="M9.6439418,0.0413407821 C13.7506836,0.03858473 16.3126917,1.36562384 17.727017,3.47032899 L14.0545215,4.91725636 C13.2581793,3.77625078 11.9240708,3.01282433 9.69458146,2.99996276 L9.59823167,2.99996276 C7.40414528,3.01052762 6.08572164,3.72756052 5.28310548,4.82492862 C4.58042422,5.79368094 4.19412878,7.03022967 4.19412878,8.43306021 L4.19412878,8.6700807 L4.19233623,8.6700807 C4.2071248,10.0141155 4.59252396,11.2965984 5.28310548,12.2405462 C6.08482536,13.3369957 7.40369714,14.0494351 9.59554284,14.0618374 L9.69278891,14.0590813 C11.8855309,14.0494351 13.2129173,13.3154066 14.0123965,12.2047176 L17.727017,13.6580757 C16.3055215,15.7232775 13.7202101,16.9892241 9.66231548,16.9892241 C9.65514527,16.9892241 9.64842319,16.9892241 9.64125297,16.9892241 C6.03149687,16.9910615 3.60348216,16.0103662 2.11924725,14.3300931 C0.771246461,12.825748 0.0833537721,10.8087772 0.0842500492,8.58418374 L0.0842500492,8.43351955 C0.0833537721,6.25899441 0.773935292,4.23834885 2.11924725,2.73584109 C3.60348216,1.06062073 6.02791177,0.0404220981 9.6439418,0.0413407821 Z" id="Shape"></path>
                            <path d="M43.9377451,4.15566729 C41.7458994,4.15566729 40.05328,5.46892613 40.05328,5.46892613 C40.05328,5.46892613 39.8659581,4.73857232 39.7906708,4.40509001 L36.2651648,4.40509001 C36.3910917,4.84651769 36.6353272,5.71054004 36.6353272,6.63289882 L36.6353272,20.6400745 L40.1397708,20.6400745 L40.1397708,15.768293 C40.8406595,16.2924022 42.1572906,16.9759032 43.9377451,16.9759032 C49.8065677,16.9759032 50.6544458,14.1077716 50.6544458,10.5648665 C50.6544458,7.05549348 49.8065677,4.15566729 43.9377451,4.15566729 Z M43.9377451,14.5276102 C40.9549348,14.5276102 40.1397708,12.793594 40.1397708,10.5653259 C40.1966844,8.19144631 40.9544867,6.63289882 43.9377451,6.63289882 C46.6265764,6.63289882 47.1535874,8.36507759 47.1535874,10.5653259 C47.1535874,12.793594 46.6265764,14.5276102 43.9377451,14.5276102 Z" id="Shape"></path>
                        </g>
                    </g>
                </g>
            </g>
        </g>
    </g>
</svg>