<?xml version="1.0" encoding="UTF-8"?>
<svg width="150px" height="50px" viewBox="0 0 150 50" version="1.1" xmlns="http://www.w3.org/2000/svg" xmlns:xlink="http://www.w3.org/1999/xlink">
    <!-- Generator: Sketch 48.2 (47327) - http://www.bohemiancoding.com/sketch -->
    <title>latam</title>
    <desc>Created with Sketch.</desc>
    <defs></defs>
    <g id="HOME" stroke="none" stroke-width="1" fill="none" fill-rule="evenodd">
        <g id="latam" fill-rule="nonzero">
            <g id="Latam-logo" transform="translate(2.000000, 7.000000)">
                <g id="Group" transform="translate(31.659157, 8.470194)" fill="#FFFFFF">
                    <path d="M85.2222865,17.0017339 L89.6156792,0.0219094509 L94.473114,0.0219094509 C94.473114,0.0219094509 95.7050276,-0.0967685671 96.3385942,0.405324841 C96.9721607,0.907418249 97.1518182,1.68335788 97.1518182,1.68335788 L99.7910854,9.90049743 L103.235142,0.0220737718 L107.93554,0.0220737718 C107.93554,0.0220737718 109.104629,0.0220737718 109.71048,0.496780366 C110.316331,0.971486961 110.498453,1.68356055 110.498453,1.68356055 L114.351449,17.0021009 L109.787491,17.0021009 L106.344969,3.94516361 L102.731772,13.8986271 L97.893727,13.8986271 C97.893727,13.8986271 97.3107713,13.9557067 96.7534496,13.5791161 C96.196128,13.2025201 96.1786004,12.8579118 96.1786004,12.8579118 L93.2332581,3.94569492 L89.8538349,17.0026322 L85.2222865,17.0017339 Z" id="path27116"></path>
                    <polygon id="path27065" points="39.9661248 0.0197185058 39.9661248 3.40659097 48.117536 3.95432724 48.117536 16.999762 52.8254936 16.999762 52.8254936 3.95432724 60.9769048 3.40659097 60.9769048 0.0197185058"></polygon>
                    <path d="M26.4189636,0.0197185058 L17.9290514,16.9995429 L23.1478278,16.9995429 L24.6308785,13.8774462 L34.0968568,13.8774462 L35.5460026,16.9995429 L40.7356943,16.9995429 L32.6812324,1.13326635 C32.6812324,1.13326635 32.4180944,0.548886518 31.9616713,0.28767109 C31.5052591,0.0264885261 31.0249327,0.0194720245 31.0249327,0.0194720245 L26.4187993,0.0194720245 L26.4189636,0.0197185058 Z M29.3014257,3.68642943 L32.4213863,10.426872 L26.1328262,10.426872 L29.301371,3.68642943 L29.3014257,3.68642943 Z" id="path27022"></path>
                    <polygon id="path26992" points="0 0.0197185058 0 16.9995429 14.332615 16.9995429 16.286226 13.0923758 4.91138683 13.0923758 4.91138683 0.0195541849"></polygon>
                    <path d="M68.7573342,0.0197185058 L60.267422,16.9995429 L65.4861984,16.9995429 L66.9692491,13.8774462 L76.4352274,13.8774462 L77.8843732,16.9995429 L83.0740649,16.9995429 L75.019603,1.13326635 C75.019603,1.13326635 74.7564705,0.548886518 74.3000419,0.28767109 C73.8436297,0.0264885261 73.3633033,0.0194720245 73.3633033,0.0194720245 L68.7571699,0.0194720245 L68.7573342,0.0197185058 Z M71.6397963,3.68642943 L74.7597569,10.426872 L68.4711968,10.426872 L71.6397416,3.68642943 L71.6397963,3.68642943 Z" id="path27070"></path>
                </g>
                <g id="Group" transform="translate(0.000000, 0.035055)" fill="#ED1651">
                    <path d="M2.48234078,13.9114058 L6.2499995,12.8352136 C6.2499995,12.8352136 6.20965434,12.5835671 6.0745541,12.4600526 C5.93945385,12.3365381 5.69644627,12.2601672 5.69644627,12.2601672 L0.459813645,10.3579887 C0.459813645,10.3579887 0.293564732,10.3020922 0.172104214,10.3693706 C0.0506436957,10.4366491 0.0549543802,10.6114317 0.0549543802,10.6114317 L0.0549543802,13.0466124 C0.0549543802,13.0466124 0.0418908701,13.2797673 0.379597668,13.8023789 C0.717309944,14.3249686 1.51724591,14.1918742 1.51724591,14.1918742 L2.48234078,13.9114058 Z" id="path27278"></path>
                    <path d="M17.4810031,8.03583884 L20.9857484,6.07231386 C20.9857484,6.07231386 21.0385184,5.73302958 20.9034182,5.60951505 C20.7683179,5.48600052 20.6074708,5.44797119 20.6074708,5.44797119 L5.47132666,0.0465247189 C5.47132666,0.0465247189 5.30507775,-0.00937176761 5.18361723,0.0579066787 C5.06215671,0.125185125 5.0664674,0.299967769 5.0664674,0.299967769 L5.0664674,2.39960522 C5.0664674,2.39960522 5.06435861,2.88610458 5.40206541,3.40869975 C5.73977769,3.93128945 6.28775496,4.06658579 6.28775496,4.06658579 L17.4810031,8.03583884 Z" id="path27260"></path>
                    <path d="M17.4810031,14.1474802 L20.9857484,12.331844 C20.9857484,12.331844 21.0604268,11.8720577 20.9253276,11.7485596 C20.7902285,11.6250451 20.6074708,11.5596289 20.6074708,11.5596289 L0.459539777,4.24132462 C0.459539777,4.24132462 0.293290864,4.18542813 0.171830346,4.25270657 C0.0503698276,4.31998502 0.054680512,4.49476767 0.054680512,4.49476767 L0.054680512,6.59440512 C0.054680512,6.59440512 0.0525717274,7.08090447 0.390278526,7.60349965 C0.727990802,8.12608935 1.27596808,8.26138569 1.27596808,8.26138569 L17.4810031,14.1474802 Z" id="path27258"></path>
                </g>
                <g id="Group" transform="translate(0.000000, 5.457644)" fill="#FFFFFF">
                    <path d="M20.6074818,0.0251958685 C20.6074818,0.0251958685 20.8120832,0.056209244 20.9855896,0.225081266 C21.159096,0.393953288 21.161035,0.600242271 21.161035,0.600242271 L21.161035,3.38022294 C21.161035,3.38022294 21.152688,3.76003423 20.9969003,4.10159161 C20.8411132,4.44315448 20.6129591,4.52395653 20.6129591,4.52395653 L20.1382525,4.69638939 L5.01196764,10.1907319 C5.01196764,10.1907319 4.93922826,10.2131864 4.84459587,10.2131864 C4.74996347,10.2131864 4.67722409,10.1907319 4.67722409,10.1907319 L0.462776899,8.65986382 C0.462776899,8.65986382 0.358224999,8.63554105 0.209881585,8.40314531 C0.0428220217,8.14242284 0.0548722197,7.62481207 0.0548722197,7.62481207 C0.0548722197,7.62481207 0.0810792094,7.89017934 0.231078978,8.01619702 C0.381078747,8.14221471 0.780841874,8.00396333 0.780841874,8.00396333 L20.1383895,0.97267281 C20.1383895,0.97267281 20.9070278,0.659115704 20.9070278,0.340530379 C20.9070278,0.120548537 20.6075968,0.0260914173 20.6075968,0.0260914173 L20.6074818,0.0251958685 Z" id="path27194"></path>
                    <path d="M20.6074818,6.13683719 C20.6074818,6.13683719 20.8120832,6.16785056 20.9855896,6.33672259 C21.159096,6.50559461 21.161035,6.71188359 21.161035,6.71188359 L21.161035,9.49186427 C21.161035,9.49186427 21.152688,9.87167555 20.9969003,10.2132329 C20.8411132,10.5547958 20.6129591,10.6355979 20.6129591,10.6355979 L20.1382525,10.8080307 L5.01196764,16.3023733 L5.01196764,12.5777666 L20.1382525,7.08342406 C20.1382525,7.08342406 20.9068908,6.76986695 20.9068908,6.45128163 C20.9068908,6.23129979 20.6074598,6.13684267 20.6074598,6.13684267 L20.6074818,6.13683719 Z" id="path27140"></path>
                    <path d="M13.0985652,15.9215979 C13.2433374,16.0663701 13.2433374,16.3849609 13.2433374,16.3849609 L13.2433374,18.4637844 C13.2433374,18.4637844 13.2349904,18.8435957 13.0792027,19.1851531 C12.9234156,19.5267159 12.6952615,19.6075125 12.6952615,19.6075125 L12.2205549,19.7799508 L5.01179784,22.3985136 L5.01179784,18.673907 L12.2205549,16.0553442 C12.2205549,16.0553442 12.9538095,15.7768477 13.0985762,15.9216199 L13.0985652,15.9215979 Z" id="path27142"></path>
                    <path d="M8.44828426,23.6950711 C8.59305643,23.8398433 8.59305643,24.1584286 8.59305643,24.1584286 L8.59305643,26.2372521 C8.59305643,26.2372521 8.58470948,26.6170634 8.42892178,26.9586208 C8.27313463,27.3001836 8.04498056,27.3809802 8.04498056,27.3809802 L7.57027397,27.5534185 L5.01179784,28.5287725 L5.01179784,24.8041659 L7.57027397,23.8288119 C7.57027397,23.8288119 8.30352851,23.5503154 8.44829521,23.6950876 L8.44828426,23.6950711 Z" id="path27168"></path>
                </g>
            </g>
        </g>
    </g>
</svg>