<?xml version="1.0" encoding="UTF-8"?>
<svg width="150px" height="50px" viewBox="0 0 150 50" version="1.1" xmlns="http://www.w3.org/2000/svg" xmlns:xlink="http://www.w3.org/1999/xlink">
    <!-- Generator: Sketch 48.2 (47327) - http://www.bohemiancoding.com/sketch -->
    <title>qatar</title>
    <desc>Created with Sketch.</desc>
    <defs></defs>
    <g id="HOME" stroke="none" stroke-width="1" fill="none" fill-rule="evenodd">
        <g id="qatar" fill-rule="nonzero">
            <g id="Qatar_Airways_Logo" transform="translate(9.000000, 7.000000)">
                <g id="g11" transform="translate(66.000000, 18.000000) scale(-1, 1) rotate(-180.000000) translate(-66.000000, -18.000000) translate(0.000000, -0.000000)">
                    <g id="g2901" transform="translate(0.541359, 0.295260)">
                        <g id="g103" transform="translate(21.089138, 1.732057)" fill="#505967">
                            <path d="M3.56753698,2.4865634 C3.29194475,2.46915746 3.02437948,2.45340922 2.74789536,2.45340922 C2.43573587,2.45340922 2.13338711,2.47827486 1.82122763,2.4865634 L2.73005767,4.52305883 L3.56753698,2.4865634 Z M4.57447429,0.176546002 C4.73501346,0.184834546 4.98474105,0.225448415 5.23357675,0.225448415 C5.48330434,0.225448415 5.79546382,0.184834546 5.92924646,0.176546002 C5.52789855,0.979705981 4.93925495,2.23044737 4.60123082,2.9507219 C4.28015249,3.64530195 3.74591383,4.80486935 3.31870128,5.93957111 C3.22059401,5.91470548 3.1305137,5.89729954 3.03329832,5.89729954 C2.92627221,5.89729954 2.83708378,5.91470548 2.73897652,5.93957111 C2.52581618,5.26073931 2.00763144,4.18405735 1.10861212,2.31167511 L0.0749182766,0.176546002 C0.198890187,0.193123091 0.324645865,0.225448415 0.475374303,0.225448415 C0.618075782,0.225448415 0.788425673,0.193123091 0.90347874,0.176546002 C1.04528834,0.648164194 1.33069129,1.3361134 1.61520237,1.97267363 C1.97195607,1.99007958 2.32870976,2.00582781 2.68457158,2.00582781 C3.0680818,2.00582781 3.44267319,1.99007958 3.8270753,1.97267363 L4.19988291,1.09491675 L4.57447429,0.176546002 Z" id="path105"></path>
                        </g>
                        <g id="g107" transform="translate(26.907613, 1.531557)" fill="#505967">
                            <path d="M0.891884245,4.14427234 C0.891884245,2.72858891 0.891884245,1.36180789 0.793776978,0.377128783 C0.990883396,0.384588473 1.2397191,0.426031196 1.43504175,0.426031196 C1.64017513,0.426031196 1.85422735,0.384588473 2.05936072,0.377128783 C1.98800998,1.04767205 1.9701723,1.94200602 1.9701723,3.17534147 C1.9701723,4.01248448 1.9701723,5.44391614 2.06827956,6.05726845 C1.85422735,6.03240282 1.63214817,6.00670833 1.43504175,6.00670833 C1.302151,6.00670833 0.971261943,6.03986251 0.802695821,6.05726845 C0.891884245,5.25493732 0.891884245,4.66645065 0.891884245,4.14427234" id="path109"></path>
                        </g>
                        <g id="g111" transform="translate(30.422974, 1.408141)" fill="#505967">
                            <path d="M2.67565274,3.31541787 C3.4872674,3.45632313 4.22663944,3.92877018 4.22663944,4.84714093 C4.22663944,5.1952598 4.08393796,5.53509013 3.81726457,5.77545793 C3.43464623,6.11445941 2.99673106,6.18076776 2.41789819,6.18076776 C2.21276481,6.18076776 1.17907097,6.13932504 0.948072953,6.13932504 C0.493211988,6.13932504 0.261322084,6.16336182 0.0570805917,6.18076776 C0.118620605,5.11237436 0.118620605,4.99633473 0.118620605,3.91136423 C0.118620605,2.31416167 0.109701762,2.13181369 0.0392429068,0.500628098 C0.235457441,0.524664878 0.44950966,0.549530512 0.652859267,0.549530512 C0.876722213,0.549530512 1.07204486,0.517205188 1.25042171,0.500628098 C1.25042171,0.715301406 1.21474634,1.78369481 1.21474634,2.02406261 L1.21474634,3.19937824 L1.42879856,3.19937824 C1.91041605,2.5702777 2.46160052,1.84171463 2.91646148,1.1869196 C3.05024412,0.997111925 3.24645865,0.690435772 3.38024129,0.500628098 C3.64780656,0.533782277 3.75483267,0.549530512 4.10266753,0.549530512 C4.42285397,0.549530512 4.64582503,0.524664878 4.89466074,0.500628098 C4.33366555,1.15376542 4.09196492,1.44386448 3.38916013,2.36306409 C3.25537749,2.53712353 3.05916296,2.8106455 2.92538032,2.98387608 L2.67565274,3.31541787 Z M1.21474634,5.73318635 C1.34852898,5.74230375 1.67852615,5.77545793 1.84798416,5.77545793 C2.14141407,5.77545793 2.43662776,5.73318635 2.67565274,5.56741546 C2.98781222,5.35274215 3.05024412,5.05435454 3.05024412,4.70623567 C3.05024412,4.16913797 2.72113883,3.56324536 1.83014647,3.56324536 C1.59825657,3.56324536 1.38420435,3.5806513 1.21474634,3.58893984 L1.21474634,5.73318635 Z" id="path113"></path>
                        </g>
                        <g id="g115" transform="translate(35.063983, 1.358990)" fill="#505967">
                            <path d="M2.67565274,2.4865634 C2.25825091,3.63784226 1.67852615,5.25245076 1.40204203,6.22967018 C1.17907097,6.196516 0.983748322,6.17993891 0.778614946,6.17993891 C0.564562727,6.17993891 0.261322084,6.21226423 0.0829452348,6.22967018 C0.448617775,5.33533621 0.759885377,4.54129363 1.00158601,3.91136423 C1.41185276,2.83468228 1.67852615,2.08871326 1.99960448,1.17945991 L2.22168365,0.549530512 C2.34654745,0.573567292 2.48835704,0.598432926 2.5873562,0.598432926 C2.68546346,0.598432926 2.77465189,0.582684691 2.92538032,0.549530512 C3.0680818,0.979705981 3.23753981,1.50934399 3.36329549,1.84917432 C3.70934658,2.79323956 3.75483267,2.92585627 4.20969364,4.10117191 L4.47636703,4.78829226 C4.57447429,4.52388768 4.7439323,4.10117191 4.84114768,3.83676733 C4.93925495,3.57982245 5.39411591,2.31250396 5.50114202,2.03069345 C5.6438435,1.65853779 5.67862699,1.55161556 6.00862416,0.549530512 C6.08889374,0.557819057 6.25745986,0.598432926 6.39213438,0.598432926 C6.51699818,0.598432926 6.61421356,0.573567292 6.7479962,0.549530512 C7.08691221,1.53420962 7.12258758,1.63367216 7.62115087,2.95901045 C8.11168721,4.25119456 8.41403597,4.98721733 8.94827463,6.22967018 C8.81449199,6.196516 8.68249313,6.17993891 8.54781861,6.17993891 C8.3783606,6.17993891 8.236551,6.20480454 8.13844374,6.22967018 C7.81736541,5.15298823 7.65771813,4.63080991 7.3990717,3.91965278 C6.9798861,2.76091423 6.92637305,2.62829752 6.6686185,1.99836812 C6.38321554,2.71035411 6.10673143,3.4314575 5.848085,4.15919172 C5.7062754,4.55704186 5.16133413,6.21226423 5.15330717,6.22967018 C5.02933526,6.20480454 4.93925495,6.17993891 4.7608781,6.17993891 C4.6021227,6.17993891 4.48439398,6.21226423 4.36934092,6.22967018 C4.10177564,5.21929658 3.15727023,2.78495101 3.0680818,2.5611603 L2.84511074,2.02323376 L2.67565274,2.4865634 Z" id="path117"></path>
                        </g>
                        <g id="g119" transform="translate(43.163184, 1.732057)" fill="#505967">
                            <path d="M3.56753698,2.4865634 C3.29105286,2.46915746 3.02437948,2.45340922 2.74700347,2.45340922 C2.43573587,2.45340922 2.13249523,2.47827486 1.82122763,2.4865634 L2.72916579,4.52305883 L3.56753698,2.4865634 Z M4.57358241,0.176546002 C4.73501346,0.184834546 4.98474105,0.225448415 5.23357675,0.225448415 C5.48330434,0.225448415 5.79546382,0.184834546 5.92835458,0.176546002 C5.52789855,0.979705981 4.93925495,2.23044737 4.60033894,2.9507219 C4.27926061,3.64530195 3.74502195,4.80486935 3.31780939,5.93957111 C3.21970212,5.91470548 3.1305137,5.89729954 3.03240643,5.89729954 C2.92627221,5.89729954 2.8361919,5.91470548 2.73808463,5.93957111 C2.5249243,5.26073931 2.00763144,4.18405735 1.10772023,2.31167511 L0.0740263923,0.176546002 C0.199782071,0.193123091 0.323753981,0.225448415 0.475374303,0.225448415 C0.618075782,0.225448415 0.786641904,0.193123091 0.90347874,0.176546002 C1.04528834,0.648164194 1.33158318,1.3361134 1.61609425,1.97267363 C1.97195607,1.99007958 2.32870976,2.00582781 2.68457158,2.00582781 C3.0680818,2.00582781 3.4417813,1.99007958 3.82529153,1.97267363 L4.19988291,1.09491675 L4.57358241,0.176546002 Z" id="path121"></path>
                        </g>
                        <g id="g123" transform="translate(47.909703, 1.640966)" fill="#505967">
                            <path d="M3.56753698,2.4865634 C3.56753698,2.56033145 3.62105004,2.65150544 3.68348193,2.75179683 C4.05807332,3.34774319 4.40501629,3.96938405 4.8063642,4.56533041 C4.93925495,4.76425548 5.59033045,5.72406895 5.72500497,5.94785966 C5.62600582,5.91470548 5.52789855,5.89729954 5.35041359,5.89729954 C5.15330717,5.89729954 4.97493032,5.92299403 4.83222884,5.94785966 C4.19096407,4.63909846 4.04826259,4.35811679 3.29194475,3.14881812 C2.53473502,4.38215357 2.19581901,5.03611975 1.7320392,5.94785966 C1.47428466,5.90641694 1.21474634,5.89729954 1.00158601,5.89729954 C0.805371473,5.89729954 0.600238097,5.91470548 0.271132811,5.94785966 C0.734020734,5.22758513 1.49212234,4.08459482 1.94609142,3.35603174 L2.47141124,2.51142904 C2.47141124,1.99753927 2.44465472,0.913397623 2.41879007,0.267719993 C2.5873562,0.284297082 2.83708378,0.316622407 3.01456875,0.316622407 C3.21970212,0.316622407 3.42572739,0.284297082 3.63086076,0.267719993 C3.59429351,1.03772579 3.56753698,1.48447835 3.56753698,2.1807161 L3.56753698,2.4865634 Z" id="path125"></path>
                        </g>
                        <g id="g127" transform="translate(53.256103, 1.492187)" fill="#505967">
                            <path d="M0.891884245,1.65770894 C0.848181917,1.26068765 0.83837119,1.15293656 0.686750869,0.722761096 C1.0078292,0.573567292 1.58755396,0.300045317 2.35279064,0.300045317 C3.98404692,0.300045317 4.61639285,1.26814734 4.61639285,2.11357889 C4.61639285,2.34565814 4.55396096,2.83468228 4.18026146,3.20683794 C3.92161503,3.47207136 3.65404975,3.5624165 2.96819077,3.81107284 C2.1851164,4.09288336 1.72936355,4.25865425 1.72936355,4.86288916 C1.72936355,5.35108444 2.07719841,5.75722313 2.78089508,5.75722313 C3.34189027,5.75722313 3.8154808,5.50856679 3.94837155,5.0369486 L4.07323535,5.0369486 C4.15350493,5.35108444 4.17134261,5.4173928 4.34971946,5.82353149 C3.91269618,6.00505062 3.52026712,6.16253297 2.8700835,6.16253297 C1.2566649,6.16253297 0.793776978,5.23504482 0.793776978,4.50731059 C0.793776978,3.81936139 1.05331529,3.39664561 1.91665924,3.04106704 C2.16549495,2.94160451 2.58557243,2.79323956 2.83440813,2.69294817 C3.00386614,2.62746866 3.56575321,2.39621827 3.56575321,1.74142324 C3.56575321,1.14464802 3.10108152,0.705355152 2.39827674,0.705355152 C1.87206503,0.705355152 1.42612291,0.829683322 1.01674804,1.65770894 L0.891884245,1.65770894 Z" id="path129"></path>
                        </g>
                        <g id="g131" transform="translate(0.187385, 5.191861)" fill="#FFFFFF">
                            <path d="M4.45942123,13.2616715 C4.45942123,19.5211804 8.06798488,21.2112147 10.7953669,21.2112147 C15.178978,21.2112147 17.0769076,17.831975 17.0769076,14.2297735 C17.0769076,12.1684124 16.8093424,10.2305507 15.7132166,8.6648446 C14.6170909,7.10079622 12.8003227,6.15590213 10.8212315,6.15590213 C5.87662529,6.15590213 4.45942123,10.5289383 4.45942123,13.2616715 Z M17.7716855,0.466645065 C18.5734894,0.98882338 19.8301543,1.63450101 20.7389844,2.00748552 L14.6982524,5.48618772 C18.4129502,6.70294608 20.7389844,9.78379814 20.7389844,13.981946 C20.7389844,19.9430673 15.8469993,22.4777043 10.8479881,22.4777043 C5.44941274,22.4777043 0.797344515,19.6952399 0.797344515,13.3851708 C0.797344515,12.0449131 1.11842284,9.51027616 3.36329549,7.39835498 C5.6893296,5.21183689 8.44257626,4.8894125 10.7686104,4.8894125 C11.0620403,4.8894125 11.3554702,4.8894125 11.6506839,4.91344928 L17.7716855,0.466645065 Z" id="path133"></path>
                        </g>
                        <g id="g135" transform="translate(22.694262, 9.900335)" fill="#FFFFFF">
                            <path d="M10.7026109,7.45969021 C9.87315859,7.40913009 9.07224654,7.35939882 8.24190231,7.35939882 C7.30720762,7.35939882 6.39837757,7.43482457 5.46368289,7.45969021 L8.19017302,13.5708342 L10.7026109,7.45969021 Z M13.7234229,0.52880915 C14.2041485,0.553674784 14.9533313,0.678002955 15.7007303,0.678002955 C16.4508049,0.678002955 17.3846077,0.553674784 17.7868475,0.52880915 C16.5836957,2.93828909 14.8195486,6.68968441 13.8028006,8.85133686 C12.8404575,10.9375636 11.2368496,14.4162658 9.95432006,17.8195422 C9.65999826,17.7441164 9.39243299,17.6943852 9.09900307,17.6943852 C8.77792474,17.6943852 8.51035947,17.7441164 8.21692955,17.8195422 C7.57477289,15.7813891 6.02467808,12.5521721 3.32494447,6.93834075 L0.222971061,0.52880915 C0.597562444,0.577711564 0.972153827,0.678002955 1.42612291,0.678002955 C1.85333546,0.678002955 2.36260137,0.577711564 2.70954434,0.52880915 C3.13675689,1.94532144 3.99385765,4.0066825 4.84828276,5.91967861 C5.91676008,5.96858102 6.98612929,6.01831229 8.0554985,6.01831229 C9.20513729,6.01831229 10.3280196,5.96858102 11.4785502,5.91967861 L12.5996487,3.28557911 L13.7234229,0.52880915 Z" id="path137"></path>
                        </g>
                        <g id="g139" transform="translate(39.360725, 9.762082)" fill="#FFFFFF">
                            <path d="M8.91884245,13.2616715 C8.91884245,14.2057367 8.94470709,15.149802 8.97146362,16.0449648 C10.8158802,16.0449648 12.7147018,16.0192703 14.2915531,15.8709053 C14.2112836,16.2679266 14.1577705,16.4908885 14.1577705,16.7644105 C14.1577705,16.9633355 14.2112836,17.2874176 14.2915531,17.7084757 C11.7256022,17.5849764 9.37281153,17.5601108 7.15380353,17.5601108 C5.09533469,17.5601108 2.12803581,17.5849764 0.0160539164,17.7084757 C0.0972153827,17.4100881 0.149836553,17.0876637 0.149836553,16.7892761 C0.149836553,16.4908885 0.0972153827,16.1684641 0.0160539164,15.8709053 C1.38063681,15.9944047 3.94658778,16.0449648 4.18650465,16.0449648 L5.52343913,16.0449648 C5.55019566,15.0752051 5.57695218,14.2057367 5.57695218,13.2865371 L5.60370871,6.35648491 C5.60370871,4.46752558 5.44406143,2.55452947 5.33614344,0.667227846 C6.29848654,0.765861528 6.69983445,0.815592796 7.15380353,0.815592796 C7.47488186,0.815592796 8.33019885,0.740995894 9.10613814,0.667227846 C9.02497668,1.36180789 8.91884245,2.18237381 8.91884245,4.06967544 L8.91884245,13.2616715 Z" id="path141"></path>
                        </g>
                        <g id="g143" transform="translate(52.455726, 9.900335)" fill="#FFFFFF">
                            <path d="M10.7026109,7.45969021 C9.87405048,7.40913009 9.07224654,7.35939882 8.24368608,7.35939882 C7.30720762,7.35939882 6.39926946,7.43482457 5.462791,7.45969021 L8.19017302,13.5708342 L10.7026109,7.45969021 Z M13.7234229,0.52880915 C14.2041485,0.553674784 14.9533313,0.678002955 15.7016221,0.678002955 C16.449913,0.678002955 17.3854996,0.553674784 17.7868475,0.52880915 C16.5836957,2.93828909 14.8195486,6.68968441 13.8036925,8.85133686 C12.8413494,10.9375636 11.2368496,14.4162658 9.95432006,17.8195422 C9.65999826,17.7441164 9.39243299,17.6943852 9.09900307,17.6943852 C8.77792474,17.6943852 8.51035947,17.7441164 8.21603767,17.8195422 C7.57566478,15.7813891 6.02467808,12.5521721 3.32405258,6.93834075 L0.223862946,0.52880915 C0.597562444,0.577711564 0.973045711,0.678002955 1.42701479,0.678002955 C1.85422735,0.678002955 2.36170948,0.577711564 2.71043622,0.52880915 C3.13854066,1.94532144 3.99296577,4.0066825 4.84828276,5.91967861 C5.91676008,5.96858102 6.98612929,6.01831229 8.05639039,6.01831229 C9.20602918,6.01831229 10.3289114,5.96858102 11.4776584,5.91967861 L12.6005406,3.28557911 L13.7234229,0.52880915 Z" id="path145"></path>
                        </g>
                        <g id="g147" transform="translate(72.981550, 9.757026)" fill="#FFFFFF">
                            <path d="M8.02695821,9.11739914 C10.4591265,9.54011492 12.6781345,10.9557984 12.6781345,13.714226 C12.6781345,14.7577538 12.2500301,15.7764159 11.4473343,16.4958616 C10.2985874,17.5145238 8.98840942,17.7134488 7.25101891,17.7134488 C6.63561878,17.7134488 3.53542915,17.5899495 2.83975944,17.5899495 C1.47606843,17.5899495 0.781290599,17.6645464 0.167674238,17.7134488 C0.354078045,14.5090975 0.354078045,14.1618074 0.354078045,10.9077248 C0.354078045,6.11197284 0.327321518,5.5665866 0.114161183,0.672200973 C0.701912901,0.745969021 1.34317767,0.821394777 1.95768592,0.821394777 C2.62570722,0.821394777 3.21435082,0.721103387 3.74858948,0.672200973 C3.74858948,1.31870746 3.64245526,4.52222998 3.64245526,5.24333336 L3.64245526,8.77093798 L4.28461191,8.77093798 C5.72768062,6.8828075 7.38569343,4.69628941 8.74849256,2.73356203 C9.14894859,2.16165245 9.7367003,1.24245285 10.1371563,0.672200973 C10.9398522,0.770834655 11.2609305,0.821394777 12.3026513,0.821394777 C13.2649944,0.821394777 13.9339076,0.745969021 14.6821984,0.672200973 C12.998321,2.6340995 12.2776785,3.50356783 10.1648047,6.26116665 C9.76345683,6.78334496 9.17570511,7.60308203 8.7743572,8.12443149 L8.02695821,9.11739914 Z M3.64245526,16.3723623 C4.04291128,16.3963991 5.03201091,16.4958616 5.54038493,16.4958616 C6.42245845,16.4958616 7.30364008,16.3723623 8.02695821,15.8758785 C8.96165289,15.229372 9.14894859,14.3358669 9.14894859,13.2915102 C9.14894859,11.6769017 8.15984896,9.86336816 5.48687188,9.86336816 C4.79120216,9.86336816 4.14993739,9.91392829 3.64245526,9.93713621 L3.64245526,16.3723623 Z" id="path149"></path>
                        </g>
                        <g id="g151" transform="translate(112.941442, 17.998409)" fill="#747F8A">
                            <path d="M8.02695821,0.828854468 C8.02695821,0.668885555 5.60727625,0.518862897 2.15300857,0.392877018 C1.54295974,0.714472551 1.08007182,1.03772579 0.741155808,1.31622089 C4.93033611,1.17863105 8.02695821,1.00871589 8.02695821,0.828854468" id="path153"></path>
                        </g>
                        <g id="g155" transform="translate(113.135695, 23.418040)" fill="#747F8A">
                            <path d="M5.35130547,0.828854468 C5.35130547,0.695408898 3.3231607,0.570251874 0.423645016,0.462500793 C0.839263075,0.687949208 1.26736751,0.915055332 1.71687717,1.14299031 C3.90734488,1.04932976 5.35130547,0.940749821 5.35130547,0.828854468" id="path157"></path>
                        </g>
                        <g id="g159" transform="translate(90.639253, 11.758544)" fill="#747F8A">
                            <path d="M6.24318972,0.828854468 C4.90090393,0.813935087 3.72361672,0.808133106 2.80408407,0.808133106 C1.48052785,0.808133106 0.408482984,1.1869196 0.408482984,1.65688008 C0.408482984,2.124354 1.48052785,2.50314049 2.80408407,2.50314049 C3.97601996,2.50314049 5.56357392,2.49153653 7.38480155,2.46998631 C6.680213,1.52509222 6.3457564,0.95732691 6.31454046,0.921686168 C6.29402712,0.894333971 6.26816247,0.862008646 6.24318972,0.828854468" id="path161"></path>
                        </g>
                        <g id="g163" transform="translate(91.362303, 9.794573)" fill="#747F8A">
                            <path d="M6.24318972,1.65770894 C6.6855643,1.16122511 7.1101012,0.743482457 7.67823147,0.286783646 C7.67823147,0.286783646 7.89228369,0.0024865634 8.5424673,0.246169777 C9.20424541,0.496483826 9.7652406,0.837143012 10.3975865,1.62538361 C12.2437869,1.5963737 14.2014728,1.5582464 16.1288347,1.51763253 C16.2875901,1.30295922 16.6095603,0.858693228 17.0064488,0.310820425 C11.6337381,0.181519128 5.8025989,0.104435663 2.81567856,0.104435663 C1.57150004,0.104435663 0.561887074,0.463329647 0.561887074,0.902622515 C0.561887074,1.34440195 1.57150004,1.70080937 2.81567856,1.70080937 C3.72540049,1.70080937 4.89733639,1.69500739 6.23873029,1.68091686 C6.23783841,1.6693129 6.24318972,1.65770894 6.24318972,1.65770894" id="path165"></path>
                        </g>
                        <g id="g167" transform="translate(92.851482, 7.288366)" fill="#747F8A">
                            <path d="M2.67565274,0 C1.57150004,0 0.676940142,0.315793552 0.676940142,0.705355152 C0.676940142,1.09574561 1.57150004,1.41236801 2.67565274,1.41236801 C5.59657364,1.41236801 11.5846845,1.32948257 16.7130189,1.19437929 C16.9600708,0.865324064 17.2071227,0.537926549 17.4416883,0.237052378 C12.1617336,0.0928317004 5.7348157,0 2.67565274,0" id="path169"></path>
                        </g>
                        <g id="g171" transform="translate(95.613826, 4.195247)" fill="#747F8A">
                            <path d="M16.9458007,0.828854468 C12.6388916,0.65313732 5.23357675,0.535439986 2.1565761,0.535439986 C1.2905565,0.535439986 0.586859833,0.78658289 0.586859833,1.09077248 C0.586859833,1.39744863 1.2905565,1.64693383 2.1565761,1.64693383 C5.09979411,1.64693383 12.011897,1.53918275 16.3741029,1.37755613 C16.5712093,1.18111762 16.7638563,0.99628307 16.9458007,0.828854468" id="path173"></path>
                        </g>
                        <g id="g175" transform="translate(99.539633, 2.694026)" fill="#747F8A">
                            <path d="M1.78376849,0.828854468 C4.3247467,0.828854468 12.0600588,0.650650757 12.0600588,0.435148595 C12.0600588,0.216331016 4.32385482,0.0397850144 1.78376849,0.0397850144 C1.28877273,0.0397850144 0.888316708,0.216331016 0.888316708,0.435148595 C0.888316708,0.650650757 1.28877273,0.828854468 1.78376849,0.828854468" id="path177"></path>
                        </g>
                        <g id="g179" transform="translate(90.648885, 17.229315)" fill="#747F8A">
                            <path d="M10.7026109,0.828854468 C7.50431404,0.778294345 4.63868996,0.750113293 2.79427334,0.750113293 C1.471609,0.750113293 0.398672258,1.12889978 0.398672258,1.59803141 C0.398672258,2.06633419 1.471609,2.44677839 2.79427334,2.44677839 C4.9365793,2.44677839 8.45684641,2.40865108 12.2732191,2.34151387 C11.7059807,1.82016441 11.1815528,1.31290548 10.7026109,0.828854468" id="path181"></path>
                        </g>
                        <g id="g183" transform="translate(116.146874, 21.020247)" fill="#747F8A">
                            <path d="M0.891884245,0.828854468 C2.76573304,0.734365058 3.94480402,0.63075825 3.94480402,0.523007169 C3.94480402,0.40448098 2.51778922,0.290927918 0.309483833,0.189807673 C0.781290599,0.519691751 0.884749171,0.807304251 0.891884245,0.828854468" id="path185"></path>
                        </g>
                        <g id="g187" transform="translate(91.502775, 20.746393)" fill="#747F8A">
                            <path d="M2.67565274,0 C1.43058233,0 0.420969364,0.356407421 0.420969364,0.797357998 C0.420969364,1.23747972 1.43058233,1.59554485 2.67565274,1.59554485 C5.22911733,1.59554485 9.86067221,1.53752504 14.5064972,1.44220677 C13.9365832,0.995454216 13.3961014,0.553674784 12.8859436,0.120183898 C8.8082488,0.0439292868 4.93211988,0 2.67565274,0" id="path189"></path>
                        </g>
                        <g id="g191" transform="translate(92.901160, 22.892214)" fill="#747F8A">
                            <path d="M15.1620322,0.828854468 C10.4118567,0.716959114 5.26568458,0.648164194 2.62570722,0.648164194 C1.52155452,0.648164194 0.627886509,0.963957746 0.627886509,1.3543482 C0.627886509,1.74473865 1.52155452,2.06218992 2.62570722,2.06218992 C5.53949305,2.06218992 11.5133337,1.97764676 16.6345331,1.84337234 C16.3794542,1.67097061 16.1225915,1.49856888 15.8621613,1.3178786 C15.6249201,1.15376542 15.3912464,0.992138798 15.1620322,0.828854468" id="path193"></path>
                        </g>
                        <g id="g195" transform="translate(95.986277, 26.399927)" fill="#747F8A">
                            <path d="M1.78376849,0 C0.917748888,0 0.214052219,0.247827486 0.214052219,0.555332493 C0.214052219,0.862008646 0.917748888,1.11149384 1.78376849,1.11149384 C5.05074048,1.11149384 13.1989949,0.977219417 17.3373378,0.785754035 C17.0733401,0.624956269 16.8093424,0.458356521 16.542669,0.290927918 C12.2295168,0.117697334 4.85452595,0 1.78376849,0" id="path197"></path>
                        </g>
                        <g id="g199" transform="translate(90.520721, 15.257967)" fill="#747F8A">
                            <path d="M2.67565274,0 C1.32890753,0 0.235457441,0.385417327 0.235457441,0.863666355 C0.235457441,1.33859997 1.32890753,1.725675 2.67565274,1.725675 C4.36398961,1.725675 6.89069768,1.70246708 9.7482948,1.66185321 C9.21138048,1.07502424 8.74492502,0.531295714 8.34536088,0.0439292868 C6.07016417,0.0157482349 4.08126231,0 2.67565274,0" id="path201"></path>
                        </g>
                        <g id="g203" transform="translate(100.428307, 28.283996)" fill="#747F8A">
                            <path d="M0,0.828854468 C0,1.04684319 0.400456026,1.22338919 0.895451782,1.22338919 C3.43553811,1.22338919 11.1717421,1.04684319 11.1717421,0.828854468 C11.1717421,0.612523452 3.43643,0.435148595 0.895451782,0.435148595 C0.400456026,0.435148595 0,0.612523452 0,0.828854468" id="path205"></path>
                        </g>
                        <g id="g207" transform="translate(96.249115, 3.498263)" fill="#FFFFFF">
                            <path d="M24.9727589,13.2616715 C24.9905965,12.831496 24.9879209,12.404636 24.9647319,11.9860645 C20.464284,11.8202936 16.1966179,11.5683218 16.1966179,11.2848536 C16.1966179,11.0063585 20.3688524,10.7568733 24.817571,10.5919312 C24.7390852,10.1145111 24.6383023,9.64620829 24.5152222,9.18702292 C20.1298274,9.02042317 16.0601596,8.77508225 16.0601596,8.49907371 C16.0601596,8.23301143 19.8595865,7.99347249 24.0666045,7.82687274 C23.8739575,7.32790235 23.6554458,6.84302248 23.4101777,6.37886398 C19.7971546,6.21723736 16.8111261,6.0017352 16.8111261,5.76634053 C16.8111261,5.5466941 19.4198876,5.34362475 22.7082648,5.18697126 C22.5236447,4.9076473 22.3309977,4.63412533 22.1294319,4.37552273 C21.9153797,4.09371222 21.6825979,3.81438826 21.4364378,3.54003743 C19.3806446,3.3949879 17.9696838,3.23004586 17.9696838,3.05349986 C17.9696838,2.90181949 18.9801886,2.76008538 20.5374185,2.63327064 C19.6874528,1.85166088 18.6831912,1.12144009 17.4996608,0.484051009 C17.4996608,0.484051009 16.1056457,1.59968912 14.955115,2.90264835 C13.9294481,4.06470231 11.7532506,7.12814842 11.241309,7.81361107 C10.7284756,8.49907371 10.3913433,8.69965649 9.79199713,8.50073142 C8.98840942,8.23632684 8.05460662,8.10371013 7.76741989,8.10371013 C7.48023316,8.10371013 7.32236965,8.20731694 7.80398714,8.38469179 C8.28382087,8.56455321 10.1808587,9.3967231 11.1146615,11.1165961 C12.1635173,13.053629 11.241309,15.7283424 11.241309,15.7283424 C10.8890147,14.2985684 10.0881027,13.7647861 10.0881027,13.7647861 C10.3467491,15.092611 10.0649137,16.2961077 9.35943327,17.1407104 L8.96611232,15.4597935 C8.96611232,15.4597935 8.71995226,15.4713975 8.11079533,14.995635 C7.50253027,14.5190437 7.33485603,13.8244637 7.33485603,13.8244637 C7.81379787,13.6454311 8.38995509,14.0921837 8.38995509,14.0921837 C7.65415059,11.5335099 6.59905153,9.45059864 5.82935543,8.34905105 C5.06055121,7.24750346 4.42642151,6.83224738 3.65583352,6.54131946 C3.00564991,6.29929395 2.79159769,6.58359104 2.79159769,6.58359104 C2.22346742,7.03946099 1.79893052,7.45720365 1.35655594,7.95368747 C1.35655594,7.95368747 1.32088057,8.01170728 1.44039306,8.01004957 C1.75701196,8.0059053 2.32068281,8.50901996 2.44376283,8.71789129 C2.58468054,8.95743023 2.56951851,9.14060707 2.49905965,9.15303989 C2.42949268,9.16381499 2.30908831,8.97400732 1.6981476,8.61594219 C1.09077443,8.25870592 0.811614663,8.5065334 0.609156939,8.70545847 C0.452185312,8.86376968 0.606481287,9.05937933 0.704588554,9.18204979 C0.797344515,9.29145858 4.01080345,14.8605317 12.5140278,20.7114154 C23.6572296,28.3791481 30.773574,30.4496266 31.1811651,30.5988204 C31.4505141,30.6974541 31.8902131,30.8275842 31.9901041,30.7322659 C32.1006978,30.6245149 32.1551027,30.538314 32.1399407,30.413157 C32.1256705,30.2888288 32.0543198,30.225007 31.5388107,30.0136491 C27.2613338,28.2622796 22.2676739,25.3430542 19.4305902,23.6439025 C15.941539,22.0641059 12.6103513,19.8079641 12.4890551,19.7540885 C12.2205979,19.5990927 12.4185962,19.3736443 12.5809192,19.4681337 C18.4727065,23.1101203 25.38035,25.5908817 33.0139872,27.6232328 C33.3787679,27.71938 33.5785499,27.71938 33.6391981,27.6447831 C33.7078732,27.5618976 33.7373053,27.4674082 33.748008,27.3629725 C33.7578187,27.2328424 33.6418737,27.1640475 33.3288224,27.0504944 C25.1279467,24.2191275 19.0836472,21.5891723 15.1959238,19.1581422 C15.1959238,19.1581422 14.793684,18.9326937 14.7883327,18.6716046 C14.7865489,18.5721421 15.0041687,18.5605381 15.0041687,18.5605381 C16.9502601,18.5282128 19.5518864,18.4221194 20.7898218,18.3549822 C20.7898218,18.3549822 20.6132287,17.7722975 19.4279145,17.3031659 C18.5128413,16.9401276 17.6655512,16.9981474 16.8271801,16.9915166 C16.6407762,16.994832 16.4829127,16.8199437 16.6318574,16.6334515 C16.7067757,16.5406198 18.4905442,13.8717084 24.9727589,13.2616715" id="path209"></path>
                        </g>
                        <g id="g211" transform="translate(59.118993, 0.316622)" fill="#FFFFFF">
                            <path d="M2.67565274,2.4865634 L1.57685135,2.4865634 C1.57685135,2.4865634 1.42879856,3.11483509 1.82657893,3.35520288 C2.22614308,3.5988861 2.67565274,3.78620721 2.67565274,3.78620721 L2.67565274,2.4865634 Z M7.88960803,4.83885238 C7.88960803,4.83885238 7.22158673,4.48244496 6.7988336,4.13266838 C6.37875612,3.78620721 6.88534637,3.65441935 6.88534637,3.65441935 L6.88534637,2.4865634 L3.6968602,2.4865634 L3.6968602,6.57364478 C3.6968602,6.57364478 2.53473502,5.58067713 2.42592515,5.44888927 C2.31354773,5.30798401 2.70240926,5.18034042 2.70240926,5.18034042 L2.63640983,4.79326539 C2.63640983,4.79326539 2.17352191,4.57030353 1.61163483,4.21721153 C1.05331529,3.8682638 0.639481004,3.42316895 0.639481004,3.11483509 C0.639481004,2.80567237 0.498563293,1.59222943 0.498563293,1.59222943 L7.88960803,1.59222943 L7.88960803,4.83885238 Z M1.28877273,6.33327699 C1.65266151,6.33327699 1.90952417,6.46672256 1.90952417,6.73610026 C1.90952417,7.00630681 1.73917428,7.19445678 1.28877273,7.19445678 C0.888316708,7.19445678 0.781290599,7.0320013 0.781290599,6.73610026 C0.781290599,6.43771265 0.920424541,6.33327699 1.28877273,6.33327699 Z M2.64800432,6.33327699 C3.01546063,6.33327699 3.26429634,6.46672256 3.26429634,6.73610026 C3.26429634,7.00630681 3.09573021,7.19445678 2.64800432,7.19445678 C2.24576453,7.19445678 2.14052219,7.0320013 2.14052219,6.73610026 C2.14052219,6.43771265 2.27876425,6.33327699 2.64800432,6.33327699 Z M4.70736505,1.24079514 C4.30958467,1.24079514 4.19988291,1.08248393 4.19988291,0.784925181 C4.19988291,0.48985299 4.34080062,0.38210191 4.70736505,0.38210191 C5.07125382,0.38210191 5.32900836,0.516376333 5.32900836,0.784925181 C5.32900836,1.05596059 5.16133413,1.24079514 4.70736505,1.24079514 Z M6.12010969,1.24079514 C5.72232932,1.24079514 5.61351944,1.08248393 5.61351944,0.784925181 C5.61351944,0.48985299 5.75800469,0.38210191 6.12010969,0.38210191 C6.48934977,0.38210191 6.74264489,0.516376333 6.74264489,0.784925181 C6.74264489,1.05596059 6.57586254,1.24079514 6.12010969,1.24079514 Z M22.0464867,6.41367587 C22.4130511,6.41367587 22.6699137,6.54380602 22.6699137,6.81318372 C22.6699137,7.08090372 22.5004557,7.2723691 22.0464867,7.2723691 C21.6495982,7.2723691 21.5416802,7.10991362 21.5416802,6.81318372 C21.5416802,6.51645382 21.6834898,6.41367587 22.0464867,6.41367587 Z M23.4583394,6.41367587 C23.8222282,6.41367587 24.0773071,6.54380602 24.0773071,6.81318372 C24.0773071,7.08090372 23.9078491,7.2723691 23.4583394,7.2723691 C23.0587753,7.2723691 22.952641,7.10991362 22.952641,6.81318372 C22.952641,6.51645382 23.0890993,6.41367587 23.4583394,6.41367587 Z M27.3558736,6.30260937 C27.1569834,6.14264046 27.2149559,5.95117508 27.4673591,5.97769842 L27.4673591,1.58642745 L28.5144312,1.58642745 L28.5144312,7.05272266 C28.5144312,7.05272266 27.5511962,6.46174943 27.3558736,6.30260937 Z M23.1479637,3.84008275 L22.4701317,3.84008275 C22.4701317,4.18571506 23.1479637,4.37718044 23.1479637,4.37718044 L23.1479637,3.84008275 Z M18.6858668,3.11483509 C18.6858668,2.95569503 18.6778399,2.69626358 18.6698129,2.4865634 L12.7539447,2.4865634 L12.7539447,3.45300771 C12.9082407,3.82516337 13.1686709,3.8682638 13.5718026,3.8682638 L17.8965493,3.8682638 C18.8303521,3.8682638 18.6858668,3.41156499 18.6858668,3.11483509 Z M25.6042129,5.98267155 L25.6042129,2.4865634 L24.1959277,2.4865634 L24.1959277,5.66107601 C24.1959277,5.66107601 23.9078491,5.55829806 23.5127444,5.39584258 C23.1212072,5.23090055 21.704895,4.69628941 21.704895,3.97352832 L21.704895,3.13804301 L23.1479637,3.13804301 L23.1479637,2.4865634 L19.724912,2.4865634 C19.7275876,2.63990148 19.7311552,2.86534989 19.7311552,3.19606283 C19.7311552,4.23793289 18.7759471,4.80486935 17.9259814,4.80486935 L13.968691,4.80486935 C13.275697,4.80486935 12.9412404,4.64904471 12.7539447,4.470841 L12.7539447,7.16213145 C12.7539447,7.16213145 12.1358689,6.75847933 11.6818998,6.43771265 C11.2288226,6.11694597 11.6818998,5.90144381 11.6818998,5.90144381 L11.6818998,2.4865634 L10.3851002,2.4865634 L10.3574517,5.4173928 C10.3574517,5.4173928 9.45486488,4.80486935 9.19621845,4.61837709 C8.94381521,4.43271369 9.08384104,4.2669428 9.36656834,4.2669428 C9.36656834,4.2669428 9.31483906,2.10280378 9.31483906,1.59222943 C9.31483906,1.07833966 8.85730244,0.491510699 7.89674311,0.758401838 C7.89674311,0.758401838 7.59171869,0.703697443 7.84501382,0.48985299 C8.09741706,0.276837392 8.40244147,0.114381917 8.74403314,0.114381917 C9.08384104,0.114381917 10.3289114,0.332370642 10.3289114,1.59222943 L26.6477175,1.59222943 L26.6477175,7.05603808 C26.6477175,7.05603808 25.6871581,6.46672256 25.4891598,6.30675364 C25.2902697,6.14678473 25.3482421,5.9544905 25.6042129,5.98267155 Z" id="path213"></path>
                        </g>
                    </g>
                </g>
            </g>
        </g>
    </g>
</svg>